<svg width="19" height="19" viewBox="0 0 19 19" fill="none" xmlns="http://www.w3.org/2000/svg">
<g clip-path="url(#clip0_1177_638)">
<path d="M13.458 2.37495C13.6659 2.16703 13.9128 2.00209 14.1844 1.88956C14.4561 1.77703 14.7473 1.71912 15.0413 1.71912C15.3354 1.71912 15.6266 1.77703 15.8982 1.88956C16.1699 2.00209 16.4167 2.16703 16.6247 2.37495C16.8326 2.58288 16.9975 2.82973 17.1101 3.10139C17.2226 3.37306 17.2805 3.66424 17.2805 3.95829C17.2805 4.25234 17.2226 4.54351 17.1101 4.81518C16.9975 5.08685 16.8326 5.33369 16.6247 5.54162L5.93717 16.2291L1.58301 17.4166L2.77051 13.0625L13.458 2.37495Z" stroke="url(#paint0_linear_1177_638)" stroke-width="2" stroke-linecap="round" stroke-linejoin="round"/>
</g>
<defs>
<linearGradient id="paint0_linear_1177_638" x1="1.58301" y1="17.4166" x2="18.1425" y2="1.71912" gradientUnits="userSpaceOnUse">
<stop stop-color="#502DB3"/>
<stop offset="1" stop-color="#5D2EE3"/>
</linearGradient>
<clipPath id="clip0_1177_638">
<rect width="19" height="19" fill="white"/>
</clipPath>
</defs>
</svg>
